<?xml version="1.0" encoding="UTF-8"?>
<svg width="18px" height="10px" viewBox="0 0 18 10" version="1.1" xmlns="http://www.w3.org/2000/svg" xmlns:xlink="http://www.w3.org/1999/xlink">
    <!-- Generator: Sketch 49.2 (51160) - http://www.bohemiancoding.com/sketch -->
    <title>dls-icon-down</title>
    <desc>Created with Sketch.</desc>
    <defs></defs>
    <g id="Secondary-Navigation" stroke="none" stroke-width="1" fill="none" fill-rule="evenodd">
        <g id="Mobile-page---less-info" transform="translate(-232.000000, -686.000000)">
            <g id="02-Needs-Menu" transform="translate(0.000000, 613.000000)">
                <g id="Toggle" transform="translate(20.000000, 30.000000)">
                    <g id="Group-8" transform="translate(0.000000, 34.000000)">
                        <g id="07-directional/dls-icon-down" transform="translate(211.000000, 4.000000)">
                            <g id="dls-icon-down">
                                <rect id="bounding" x="0" y="0" width="20" height="20"></rect>
                                <path d="M18.566895,5.49560638 C18.3227528,5.25146454 17.9272449,5.25146454 17.6831075,5.49560638 L9.99999805,13.1787142 L2.31689359,5.49560638 C2.07275197,5.25146454 1.67724355,5.25146454 1.43310622,5.49560638 C1.18896459,5.73954396 1.18896459,6.13545629 1.43310622,6.37939346 L9.55810701,14.5043935 C9.68017334,14.6264685 9.84008626,14.6875021 9.99999834,14.6875021 C10.1599104,14.6875021 10.3198233,14.6264685 10.4418945,14.5043982 L18.5668953,6.37939825 C18.8110324,6.13546025 18.8110324,5.73954396 18.566895,5.49560638 Z" id="dls-icon-down_1_" fill="#A7A8AA"></path>
                            </g>
                        </g>
                    </g>
                </g>
            </g>
        </g>
    </g>
</svg>