<?xml version="1.0" encoding="UTF-8"?>
<svg width="26px" height="28px" viewBox="0 0 26 28" version="1.1" xmlns="http://www.w3.org/2000/svg" xmlns:xlink="http://www.w3.org/1999/xlink">
    <!-- Generator: Sketch 49.2 (51160) - http://www.bohemiancoding.com/sketch -->
    <title>dls-icon-rewards</title>
    <desc>Created with Sketch.</desc>
    <defs></defs>
    <g id="Secondary-Navigation" stroke="none" stroke-width="1" fill="none" fill-rule="evenodd">
        <g id="Mobile-page---less-info" transform="translate(-176.000000, -351.000000)">
            <g id="Group-14" transform="translate(0.000000, 336.000000)">
                <g id="maximise" transform="translate(136.000000, 15.000000)">
                    <g id="05-membership/dls-icon-rewards" transform="translate(39.000000, 0.000000)">
                        <g id="dls-icon-rewards">
                            <rect id="bounding" x="0" y="0" width="28" height="28"></rect>
                            <path d="M25.3308599,6.11530821 C26.0777312,6.54349996 26.5416667,7.34147371 26.5416667,8.19757196 L26.5416667,19.7968724 C26.5416667,20.6532495 26.0777306,21.4509444 25.3302845,21.8788491 L15.209661,27.6786437 C14.8419532,27.8888934 14.4238401,27.9999997 13.9999974,27.9999997 C13.5761547,27.9999997 13.1580415,27.8888934 12.790909,27.6786431 L2.66914011,21.8788485 C1.92226941,21.4509438 1.45833333,20.6532489 1.45833333,19.7968718 L1.45833333,8.19757196 C1.45833333,7.34147371 1.92226355,6.54349996 2.66885331,6.11530821 L12.7903337,0.315800625 C13.5246063,-0.105266875 14.4753884,-0.105266875 15.209661,0.315800625 L25.3308599,6.11530821 Z M24.7821559,19.7968724 L24.7821559,8.19757196 C24.7821559,7.96538604 24.6555766,7.74858554 24.4522476,7.63206413 L14.3310487,1.83255596 C14.2308164,1.77501013 14.1162664,1.74452454 13.9999974,1.74452454 C13.8837283,1.74452454 13.7691783,1.77500954 13.668939,1.83255596 L3.54717061,7.63206413 C3.34412893,7.74858554 3.21783711,7.96538604 3.21783711,8.19757196 L3.21783711,19.7968724 C3.21783711,20.0293453 3.34412951,20.2458588 3.54717061,20.3620944 L13.668946,26.161889 C13.8694065,26.276987 14.1300135,26.276987 14.3316241,26.161889 L24.4522476,20.3620944 C24.6561514,20.2458588 24.7821559,20.0287736 24.7821559,19.7968724 Z M20.5867079,10.6641515 C20.9085998,10.713722 21.1766478,10.9365028 21.2831762,11.2424839 C21.3891404,11.5487391 21.3169712,11.8883272 21.0953139,12.1253565 L18.3266069,15.0808067 L19.0494268,19.2749605 C19.1061294,19.6037202 18.9703837,19.9353318 18.6994719,20.13134 C18.5459727,20.241874 18.3644088,20.2982818 18.1822695,20.2982818 C18.0419444,20.2982818 17.9016228,20.2652301 17.7727504,20.1979992 L14.0103069,18.2299755 L10.2478623,20.1979992 C9.95174773,20.3529734 9.59262688,20.3267671 9.32113964,20.131333 C9.05022659,19.9353312 8.91448092,19.6037196 8.97118409,19.2749535 L9.69400344,15.0830817 L6.90696706,12.1276315 C6.6835913,11.8908892 6.61027835,11.5507283 6.71681086,11.243615 C6.82306185,10.936788 7.09139898,10.7137208 7.41385866,10.6638656 L11.3824945,10.052492 L13.2565559,6.95317321 C13.415211,6.68993646 13.7015884,6.52897263 14.0103069,6.52897263 C14.3190254,6.52897263 14.6054028,6.68993646 14.7640579,6.95317321 L16.6381193,10.0527779 L20.5867079,10.6641515 Z M16.741785,14.2050513 L18.6765642,12.1398885 L15.9611223,11.7193927 C15.7033786,11.6797937 15.4765706,11.5282361 15.3425434,11.3057353 L14.0103116,9.10239254 L12.6780798,11.3057353 C12.5434831,11.5282373 12.3166698,11.6797949 12.0589314,11.7196803 L9.33088557,12.1398891 L11.2765403,14.2027769 C11.4655522,14.4027675 11.5486012,14.67911 11.5022087,14.9497568 L11.0067715,17.823157 L13.600789,16.4665069 C13.7290867,16.3998406 13.869983,16.366222 14.0103093,16.366222 C14.1506355,16.366222 14.2915319,16.3998418 14.4198295,16.4665069 L17.013847,17.823157 L16.5184098,14.9497568 C16.4720162,14.6802457 16.5544909,14.404763 16.741785,14.2050513 Z" fill="#53565A"></path>
                        </g>
                    </g>
                </g>
            </g>
        </g>
    </g>
</svg>