<?xml version="1.0" encoding="UTF-8"?>
<svg width="24px" height="24px" viewBox="0 0 24 24" version="1.1" xmlns="http://www.w3.org/2000/svg" xmlns:xlink="http://www.w3.org/1999/xlink">
    <!-- Generator: Sketch 49.2 (51160) - http://www.bohemiancoding.com/sketch -->
    <title>dls-icon-search</title>
    <desc>Created with Sketch.</desc>
    <defs></defs>
    <g id="Secondary-Navigation" stroke="none" stroke-width="1" fill="none" fill-rule="evenodd">
        <g id="Mobile-page---less-info" transform="translate(-301.000000, -475.000000)">
            <g id="Group-14" transform="translate(0.000000, 336.000000)">
                <g id="Group-12" transform="translate(262.000000, 138.000000)">
                    <g id="02-actions/dls-icon-search" transform="translate(38.000000, 0.000000)">
                        <g id="dls-icon-search">
                            <rect id="bounding" x="0" y="0" width="26.0274871" height="26.0049142"></rect>
                            <path d="M24.1624721,22.992382 L17.4461379,16.2818727 C20.3793071,12.7698971 20.1999948,7.540523 16.9001257,4.24354891 C15.153105,2.49804338 12.8633817,1.62530713 10.5736584,1.62530713 C8.28393507,1.62530713 5.99421174,2.49804338 4.24722414,4.24354891 C0.753215873,7.73449382 0.753215873,13.3944989 4.24722414,16.8854439 C5.99421174,18.6309494 8.28393507,19.5036856 10.5736584,19.5036856 C12.6089092,19.5036856 14.6418433,18.8101392 16.2959975,17.4310156 L23.0123317,24.1415249 C23.1711909,24.3002463 23.3792964,24.379607 23.5874019,24.379607 C23.7955075,24.379607 24.003613,24.3002463 24.1624722,24.1415249 C24.4801904,23.8243467 24.4801904,23.3095602 24.1624721,22.992382 Z M5.39749695,15.7362017 C4.01485952,14.3547965 3.25342767,12.5180923 3.25342767,10.5644964 C3.25342767,8.61090049 4.01485952,6.77419627 5.397497,5.39279101 C6.7801013,4.01138576 8.6183667,3.25061427 10.5736584,3.25061427 C12.5289832,3.25061427 14.3672486,4.01138576 15.7498529,5.39279101 C17.1324573,6.77419627 17.8938891,8.61090049 17.8938891,10.5644964 C17.8938891,12.5180923 17.1324573,14.3547965 15.7498529,15.7362017 C14.3672486,17.117607 12.5289831,17.8783785 10.5736584,17.8783785 C8.6183667,17.8783785 6.7801013,17.117607 5.39749695,15.7362017 Z" fill="#FFFFFF"></path>
                        </g>
                    </g>
                </g>
            </g>
        </g>
    </g>
</svg>