<?xml version="1.0" encoding="UTF-8"?>
<svg width="28px" height="20px" viewBox="0 0 28 20" version="1.1" xmlns="http://www.w3.org/2000/svg" xmlns:xlink="http://www.w3.org/1999/xlink">
    <!-- Generator: Sketch 49.2 (51160) - http://www.bohemiancoding.com/sketch -->
    <title>dls-icon-airplane</title>
    <desc>Created with Sketch.</desc>
    <defs></defs>
    <g id="Secondary-Navigation" stroke="none" stroke-width="1" fill="none" fill-rule="evenodd">
        <g id="Mobile-page---less-info" transform="translate(-49.000000, -478.000000)">
            <g id="Group-14" transform="translate(0.000000, 336.000000)">
                <g id="Expenses" transform="translate(11.000000, 138.000000)">
                    <g id="05-membership/dls-icon-airplane" transform="translate(38.000000, 0.000000)">
                        <g id="dls-icon-airplane">
                            <rect id="bounding" x="0" y="0" width="28" height="28"></rect>
                            <path d="M8.36720564,23.624993 L8.23675423,23.624993 C7.34409673,23.624993 6.92966756,23.2450289 6.73940173,22.9260226 C6.44346506,22.4298428 6.55027339,21.8590464 6.74879923,21.4910453 L9.19093589,17.3074481 L5.77182673,17.3080198 L3.73073173,18.9833951 C3.56951589,19.1127084 3.46612589,19.1833419 3.38409173,19.2323373 C2.96852506,19.5097671 2.51051506,19.5524869 2.07643339,19.5564746 L1.61130673,19.5570445 C1.42217839,19.5570445 0.866757559,19.5570445 0.438940892,19.1480275 C0.160661726,18.9133228 -0.0019768578,18.5618423 1.8142199e-05,18.1898558 C0.000869808866,18.070227 0.0176756422,17.952305 0.0498639755,17.8372378 L0.0686648089,17.7779951 L1.42132789,13.9957253 L0.0498703922,10.1539276 C0.0176762255,10.0385658 0.000870392199,9.92064442 1.87255324e-05,9.80329525 C-0.00197627447,9.429315 0.160662892,9.07783275 0.439227892,8.84341442 C0.866472892,8.43468442 1.42217956,8.43468442 1.61016456,8.43468442 L2.06874039,8.43497025 C2.51079623,8.43896025 2.96965789,8.48196942 3.38579623,8.75996333 C3.45985039,8.80439583 3.55099623,8.86620642 3.68372789,8.97045333 L6.38534931,10.6837092 L9.18922323,10.683995 L6.76360714,6.53515333 C6.55027048,6.1406625 6.44345631,5.57043083 6.73939881,5.07397333 C6.92966464,4.75524583 7.34380798,4.375 8.23675189,4.375 L8.36720331,4.375 C8.63950389,4.375 9.32651189,4.43538667 9.69565048,4.47326833 L9.92693106,4.50118083 C10.9659936,4.62023917 11.593193,4.7472775 11.9760055,5.07596833 C12.4015413,5.371625 13.7197405,6.48901167 17.4971621,10.6840008 L24.2550561,10.6840008 C27.0845669,10.6840008 28.0000106,12.9150823 28.0000106,13.99573 C28.0000106,15.0760931 27.0845622,17.3074592 24.2550561,17.3074592 L17.4926098,17.3074592 C13.5944142,21.5611177 12.3200817,22.6537331 12.0027846,22.9003968 C11.6222529,23.2467509 10.9904971,23.3766336 9.92750564,23.4985415 L9.73040256,23.5224675 C9.32822398,23.5646093 8.64178006,23.624993 8.36720564,23.624993 Z M6.13071731,15.5574487 L12.2386251,15.5574487 L8.55519706,21.8670223 C8.78533898,21.8527808 9.16302456,21.8220193 9.51621423,21.785561 C9.54070839,21.7815687 9.62558923,21.7713195 9.72812698,21.7599218 C10.3131695,21.692706 10.6925636,21.6277647 10.8583353,21.566811 L10.9420734,21.5098403 C10.9694206,21.4893327 12.0267123,20.6952288 16.4609545,15.8422798 L16.7212897,15.5574504 L24.2550625,15.5574504 C26.1639981,15.5574504 26.250017,14.011389 26.250017,13.9957213 C26.250017,13.9800535 26.1639981,12.4339921 24.2550625,12.4339921 L16.7161634,12.4339921 L16.4558281,12.1431765 C12.068864,7.253204 11.0189812,6.53969983 10.9768231,6.51178733 L10.8372548,6.42548317 C10.6618004,6.36652567 10.2898081,6.304144 9.72812173,6.23977317 C9.62558398,6.22809483 9.54070314,6.21812567 9.48202448,6.20986567 C9.14763506,6.17596817 8.78247948,6.14663233 8.55575531,6.132959 L12.2403272,12.4339863 L5.87721114,12.4337004 L2.62814948,10.3669673 C2.55779364,10.3108571 2.51820281,10.2792393 2.48373948,10.2595873 L2.41281781,10.2145832 C2.40313448,10.210879 2.33192698,10.1875218 2.05991281,10.1849621 L1.91721314,10.1849621 L3.27955898,13.995709 L1.91692731,17.8064571 L2.06703064,17.8064571 C2.33135064,17.8041763 2.40256398,17.7808202 2.41794064,17.7734165 L2.48886231,17.7284135 C2.52247398,17.7090474 2.56177898,17.677716 2.62899648,17.6241654 L5.14462148,15.5580046 L6.13071731,15.5574487 Z" fill="#63666A"></path>
                        </g>
                    </g>
                </g>
            </g>
        </g>
    </g>
</svg>