<?xml version="1.0" encoding="UTF-8"?>
<svg width="26px" height="24px" viewBox="0 0 26 24" version="1.1" xmlns="http://www.w3.org/2000/svg" xmlns:xlink="http://www.w3.org/1999/xlink">
    <!-- Generator: Sketch 49.2 (51160) - http://www.bohemiancoding.com/sketch -->
    <title>dls-icon-business</title>
    <desc>Created with Sketch.</desc>
    <defs></defs>
    <g id="Secondary-Navigation" stroke="none" stroke-width="1" fill="none" fill-rule="evenodd">
        <g id="homepage-with-semantic" transform="translate(-104.000000, -438.000000)">
            <g id="01-Header" transform="translate(-128.000000, 63.000000)">
                <g id="Needs-Based-Menu" transform="translate(169.000000, 354.000000)">
                    <g id="03-financial/dls-icon-business" transform="translate(62.000000, 19.000000)">
                        <g id="dls-icon-business">
                            <rect id="bounding" x="0" y="0" width="28" height="28"></rect>
                            <path d="M3.01834167,23.890475 L3.38584167,20.108725 C3.91959167,20.308225 4.49184167,20.428975 5.09559167,20.428975 L10.031175,20.428975 C10.2645083,21.121975 10.9125917,21.6248083 11.6825917,21.6248083 L16.350425,21.6248083 C17.120425,21.6248083 17.7690917,21.121975 18.002425,20.428975 L22.9380083,20.428975 C23.5400083,20.428975 24.115175,20.316975 24.648925,20.1186417 L25.014675,23.890475 L3.01834167,23.890475 Z M4.67909167,7.639975 L23.353925,7.639975 C23.385425,7.639975 23.439675,7.68955833 23.4425917,7.71989167 L24.4692583,18.2723917 C24.013675,18.5261417 23.495675,18.678975 22.9380083,18.678975 L5.09559167,18.678975 C4.53734167,18.678975 4.02109167,18.523225 3.564925,18.2706417 L4.590425,7.71989167 C4.59334167,7.69014167 4.64875833,7.639975 4.67909167,7.639975 Z M10.515925,5.88939167 L17.5170917,5.88939167 L17.5170917,4.14289167 L10.515925,4.14289167 L10.515925,5.88939167 Z M25.1850083,7.550725 C25.093425,6.61914167 24.2895917,5.889975 23.353925,5.889975 L19.2670917,5.889975 L19.2670917,4.14289167 C19.2670917,3.17805833 18.481925,2.39289167 17.5170917,2.39289167 L10.515925,2.39289167 C9.55109167,2.39289167 8.765925,3.17805833 8.765925,4.14289167 L8.765925,5.889975 L4.67909167,5.889975 C3.74284167,5.889975 2.93900833,6.619725 2.84859167,7.550725 L1.26775833,23.809975 C1.221675,24.2836417 1.37509167,24.753225 1.68834167,25.0973917 C2.00159167,25.442725 2.453675,25.640475 2.92909167,25.640475 L25.103925,25.640475 C25.5793417,25.640475 26.031425,25.442725 26.344675,25.097975 C26.657925,24.753225 26.8113417,24.284225 26.7652583,23.8105583 L25.1850083,7.550725 Z" id="Group" fill="#006FCF"></path>
                        </g>
                    </g>
                </g>
            </g>
        </g>
    </g>
</svg>