<?xml version="1.0" encoding="UTF-8"?>
<svg width="22px" height="28px" viewBox="0 0 22 28" version="1.1" xmlns="http://www.w3.org/2000/svg" xmlns:xlink="http://www.w3.org/1999/xlink">
    <!-- Generator: Sketch 49.2 (51160) - http://www.bohemiancoding.com/sketch -->
    <title>dls-icon-card-swipe</title>
    <desc>Created with Sketch.</desc>
    <defs></defs>
    <g id="Secondary-Navigation" stroke="none" stroke-width="1" fill="none" fill-rule="evenodd">
        <g id="Mobile-page---less-info" transform="translate(-178.000000, -474.000000)">
            <g id="Group-14" transform="translate(0.000000, 336.000000)">
                <g id="improve" transform="translate(137.000000, 138.000000)">
                    <g id="03-financial/dls-icon-card-swipe" transform="translate(38.000000, 0.000000)">
                        <g id="dls-icon-card-swipe">
                            <rect id="bounding" x="0" y="0" width="28" height="28"></rect>
                            <path d="M17.5,5.17202758 L17.5,1.75 C17.5,0.787486 16.712514,0 15.75,0 L5.25,0 C4.287486,0 3.5,0.787486 3.5,1.75 L3.5,17.5 C3.5,18.4624784 4.287486,19.25 5.25,19.25 L9.49668475,19.25 C9.68702292,20.9624736 10.1457428,23.0440519 11.6008719,24.3661297 C11.6322033,24.3946127 11.6760671,24.431071 11.7287607,24.4749348 C11.9364023,24.6458333 12.0654304,24.7717283 12.1127125,24.8503418 L12.1127125,25.8808597 C12.1127113,26.8606771 12.9370115,28 14,28 L22.75,28 C23.7150066,28 24.5,27.2150066 24.5,26.25 L24.5,12.8603924 C24.52891,12.2331592 24.1661426,9.6565805 17.5,5.17202758 Z M14.5833333,12.8333333 C14.5833333,11.3858238 13.4058429,10.2083333 11.9583333,10.2083333 C10.5108238,10.2083333 9.33333333,11.3858238 9.33333333,12.8333333 L9.33333333,17.5 L8.16666608,17.5 L8.16666608,1.75 L15.75,1.75 L15.75,17.5 L15.0075888,17.5 L14.5833333,12.8333333 Z M5.24999942,1.75 L6.41666608,1.75 L6.41666608,17.5 L5.24999942,17.5 L5.24999942,1.75 Z M22.75,26.25 L14.0655107,26.25 C13.9772133,26.1793618 13.8638506,25.9782717 13.8627113,25.8808597 L13.8627113,24.7916667 C13.8627113,23.965088 13.1728514,23.3971354 12.8413081,23.1236979 L12.7769361,23.0701497 C11.7904967,22.1740365 11.4287262,20.6475932 11.2598214,19.25 L11.2599282,19.25 C11.1933488,18.6992085 11.1536151,18.1668241 11.1220702,17.7033693 C11.11705,17.6299538 11.1122789,17.5690002 11.1074367,17.5 L11.1074367,17.5 C11.0994613,17.3854625 11.0915572,17.2683968 11.0833328,17.165288 L11.0833328,12.8333333 C11.0833328,12.3508303 11.4758298,11.9583333 11.9583328,11.9583333 C12.4408358,11.9583333 12.8333328,12.3508303 12.8333328,12.8333333 L13.4166661,19.25 L15.1666661,19.25 L15.7499994,19.25 C16.7125134,19.25 17.4999994,18.4624784 17.4999994,17.5 L17.4999994,7.29946408 C22.2107439,10.6527406 22.699264,12.4932098 22.7465817,12.7686767 C22.7408854,12.792318 22.75,12.7723797 22.75,12.8333333 L22.75,26.25 Z" id="dls-icon-card-swipe_1_" fill="#63666A"></path>
                        </g>
                    </g>
                </g>
            </g>
        </g>
    </g>
</svg>